HIERARCHY
ROOT root
{
	OFFSET 0.000000 0.000000 0.000000
	CHANNELS 6 Xposition Yposition Zposition Zrotation Yrotation Xrotation
	JOINT lhip
	{
		OFFSET 0.058581 -0.082280 -0.017664
		CHANNELS 3 Zrotation Yrotation Xrotation
		JOINT lknee
		{
			OFFSET 0.043451 -0.386469 0.008037
			CHANNELS 3 Zrotation Yrotation Xrotation
			JOINT lankle
			{
				OFFSET -0.014790 -0.426874 -0.037428
				CHANNELS 3 Zrotation Yrotation Xrotation
				JOINT ltoe
				{
					OFFSET 0.041054 -0.060286 0.122042
					CHANNELS 3 Zrotation Yrotation Xrotation
					End Site
					{
						OFFSET 0.000000 0.000000 0.000000
					}
				}
			}
		}
	}
	JOINT rhip
	{
		OFFSET -0.060310 -0.090513 -0.013543
		CHANNELS 3 Zrotation Yrotation Xrotation
		JOINT rknee
		{
			OFFSET -0.043257 -0.383688 -0.004843
			CHANNELS 3 Zrotation Yrotation Xrotation
			JOINT rankle
			{
				OFFSET 0.019056 -0.420046 -0.034562
				CHANNELS 3 Zrotation Yrotation Xrotation
				JOINT rtoe
				{
					OFFSET -0.034840 -0.062106 0.130323
					CHANNELS 3 Zrotation Yrotation Xrotation
					End Site
					{
						OFFSET 0.000000 0.000000 0.000000
					}
				}
			}
		}
	}
	JOINT lowerback
	{
		OFFSET 0.004439 0.124404 -0.038385
		CHANNELS 3 Zrotation Yrotation Xrotation
		JOINT upperback
		{
			OFFSET 0.004488 0.137956 0.026820
			CHANNELS 3 Zrotation Yrotation Xrotation
			JOINT chest
			{
				OFFSET -0.002265 0.056032 0.002855
				CHANNELS 3 Zrotation Yrotation Xrotation
				JOINT lowerneck
				{
					OFFSET -0.013390 0.211636 -0.033468
					CHANNELS 3 Zrotation Yrotation Xrotation
					JOINT upperneck
					{
						OFFSET 0.010113 0.088937 0.050410
						CHANNELS 3 Zrotation Yrotation Xrotation
						End Site
						{
							OFFSET 0.000000 0.000000 0.000000
						}
					}
				}
				JOINT lclavicle
				{
					OFFSET 0.071702 0.114000 -0.018898
					CHANNELS 3 Zrotation Yrotation Xrotation
					JOINT lshoulder
					{
						OFFSET 0.122921 0.045205 -0.019046
						CHANNELS 3 Zrotation Yrotation Xrotation
						JOINT lelbow
						{
							OFFSET 0.255332 -0.015649 -0.022946
							CHANNELS 3 Zrotation Yrotation Xrotation
							JOINT lwrist
							{
								OFFSET 0.265709 0.012698 -0.007375
								CHANNELS 3 Zrotation Yrotation Xrotation
								End Site
								{
									OFFSET 0.000000 0.000000 0.000000
								}
							}
						}
					}
				}
				JOINT rclavicle
				{
					OFFSET -0.082954 0.112472 -0.023707
					CHANNELS 3 Zrotation Yrotation Xrotation
					JOINT rshoulder
					{
						OFFSET -0.113228 0.046853 -0.008472
						CHANNELS 3 Zrotation Yrotation Xrotation
						JOINT relbow
						{
							OFFSET -0.260127 -0.014369 -0.031269
							CHANNELS 3 Zrotation Yrotation Xrotation
							JOINT rwrist
							{
								OFFSET -0.269108 0.006794 -0.006027
								CHANNELS 3 Zrotation Yrotation Xrotation
								End Site
								{
									OFFSET 0.000000 0.000000 0.000000
								}
							}
						}
					}
				}
			}
		}
	}
}
MOTION
Frames: 15
Frame Time: 0.033333
0.338863 0.101776 0.866321 75.920432 9.769382 95.149033 26.816374 2.848222 0.112886 -12.770479 -11.951684 50.842836 -5.458371 10.219204 -34.262780 0.000000 -0.000000 0.000000 -1.489561 9.499848 -48.007373 10.781973 -4.846470 43.601534 1.249212 4.872983 -14.359027 0.000000 -0.000000 0.000000 -10.258831 -8.934856 19.716591 5.631783 -8.700916 -3.560744 3.438873 -7.797361 1.522935 -2.322390 27.052044 18.719917 13.653318 13.982115 -18.004824 -1.430803 -31.570958 -0.788466 -13.531537 -29.992842 -11.939643 31.928071 -18.636997 -19.444128 9.547721 -13.909860 -16.429676 7.912774 34.092195 -4.419130 46.590795 35.378802 5.179328 -160.180101 55.728853 -145.449100 -17.752619 19.719730 -46.921932 
0.338577 0.106605 0.861156 76.337804 9.509847 95.040938 27.713062 3.939976 -1.255781 -14.882472 -12.663224 53.838457 -5.588526 8.378958 -33.725379 0.000000 -0.000000 0.000000 -2.351078 8.500476 -48.854510 11.288593 -5.732865 45.202070 0.962546 5.120442 -15.139857 0.000000 -0.000000 0.000000 -9.439451 -9.984699 21.102779 6.112682 -9.413339 -4.545917 3.479176 -8.329519 2.395230 -5.334258 26.765769 17.772422 11.146645 14.242548 -20.013860 0.634147 -30.336415 -0.150065 -15.137838 -30.372071 -14.971835 35.571752 -16.276647 -28.050138 5.493651 -1.864865 -11.155042 6.226025 33.541945 -4.809088 45.940012 38.296687 4.558959 -160.607764 55.327122 -145.513878 -15.956302 17.746089 -45.934428 
0.339451 0.110884 0.857320 76.910027 8.083247 95.485163 27.049469 4.029822 -2.610769 -15.718777 -11.583046 55.101068 -5.729112 6.333900 -33.389380 0.000000 -0.000000 0.000000 -4.018430 7.789098 -50.475502 10.215703 -6.260434 47.569356 0.319451 5.855410 -15.851388 0.000000 -0.000000 0.000000 -7.829955 -9.868264 20.280442 5.106465 -8.212770 -3.351911 2.653939 -7.120586 1.631220 -5.902924 23.816002 17.413206 9.788714 12.960416 -20.468775 -1.899729 -27.774515 -0.753760 -20.488586 -32.056490 -11.763048 49.299892 -29.492311 -40.063513 7.832452 -2.591577 -15.192453 5.970939 32.233603 -4.442054 45.846779 39.956898 5.112993 -158.700920 54.444408 -142.893956 -16.150265 17.124443 -45.865284 
0.341455 0.113466 0.855019 79.867579 5.926852 95.742585 25.940177 3.035621 -4.815137 -15.800402 -10.540997 56.259982 -6.050356 3.489526 -32.693039 0.000000 -0.000000 0.000000 -6.172078 6.674959 -51.239956 7.527181 -6.614301 50.226820 -0.517536 6.070053 -17.018223 0.000000 -0.000000 0.000000 -6.207002 -8.969627 19.521248 3.910671 -6.578385 -1.624190 1.990536 -5.809906 0.580412 -4.923004 20.129811 17.570433 9.349070 9.667469 -20.409305 -4.191886 -26.258434 -1.662710 -29.817444 -32.948165 -4.246103 71.297883 -41.593606 -55.143103 13.466254 -12.797244 -22.370254 5.282704 31.537593 -4.772270 46.525030 39.636553 6.162184 -154.489572 53.871675 -137.285283 -17.314462 18.691536 -47.324485 
0.343583 0.115289 0.853613 86.247894 3.259784 95.694688 24.545023 0.947680 -8.620662 -16.076072 -10.730748 58.145831 -6.258283 1.009719 -31.570613 0.000000 -0.000000 0.000000 -9.052525 4.177071 -50.682185 4.283682 -7.012000 53.064539 -1.185580 5.412473 -19.187769 0.000000 -0.000000 0.000000 -4.555134 -7.792397 19.538214 3.416332 -5.454032 -0.843404 1.673012 -4.899046 0.310729 -4.739447 14.660212 17.313393 9.324891 6.181351 -20.095780 -5.631582 -24.391171 -1.670475 -40.625825 -33.173992 4.126082 98.856297 -47.919696 -77.224996 22.204675 -19.482445 -33.034363 4.105625 29.740372 -5.746119 47.219265 39.201632 7.049923 -150.259008 53.469102 -131.945950 -19.469050 18.935019 -48.385623 
0.345755 0.118350 0.850954 94.945299 0.238901 95.400486 22.792715 -1.382934 -13.427245 -16.691659 -11.918391 60.256403 -6.330903 -0.951550 -30.303262 0.000000 -0.000000 0.000000 -12.890148 0.075707 -48.969929 1.687876 -7.709256 55.746786 -1.026882 4.281389 -21.468095 0.000000 -0.000000 0.000000 -2.617309 -6.447167 19.724900 3.321792 -4.704163 -1.473562 1.391922 -3.904596 0.905537 -5.902652 6.937109 17.414500 10.405106 3.180939 -19.807015 -7.955979 -21.496883 -0.736255 -48.228590 -32.969307 11.200432 124.101331 -49.791223 -101.792812 26.686527 -19.875472 -40.929990 3.813150 26.529802 -5.972356 45.595834 38.885631 5.370884 -148.771354 52.463874 -131.293964 -20.491352 18.497436 -47.623137 
0.347100 0.122747 0.846833 103.918923 -2.755485 94.922080 20.822687 -3.647970 -17.692507 -17.475213 -13.732439 61.439426 -5.979686 -2.733794 -30.060465 0.000000 -0.000000 0.000000 -17.115787 -5.070865 -46.598383 -0.103972 -8.663144 58.156275 -0.199445 3.490455 -23.100513 0.000000 -0.000000 0.000000 -0.701216 -4.643967 19.625263 3.349407 -3.651470 -2.877743 1.100040 -2.849930 1.839421 -7.104654 -1.525076 18.327042 12.238080 -0.380568 -20.130671 -9.825783 -17.502762 -0.282587 -53.148048 -33.198249 17.332113 141.406255 -49.340921 -120.633722 25.861768 -19.613350 -44.166084 3.693716 22.295860 -6.200865 42.982691 38.133642 2.692467 -148.530047 50.785420 -132.852373 -20.142295 18.445600 -46.744187 
0.346312 0.127523 0.841867 110.550967 -4.997606 94.306404 18.995308 -5.573586 -20.125462 -18.345760 -15.570324 61.842342 -4.865462 -3.449765 -31.756229 0.000000 -0.000000 0.000000 -20.329890 -9.453255 -44.719370 -1.057067 -8.831238 60.331920 0.786766 2.734733 -24.066023 0.000000 -0.000000 0.000000 1.195608 -2.347100 19.453578 3.169610 -1.672958 -4.398580 0.716072 -1.759775 2.964809 -7.695292 -9.042373 18.853577 13.722208 -4.327024 -20.622010 -10.301672 -14.172215 -0.599912 -55.995948 -33.744946 22.120629 152.248737 -47.359256 -132.541912 25.034576 -18.498371 -45.076236 3.246708 18.674457 -6.575721 40.717627 37.396498 -0.002256 -148.343169 49.200509 -133.824446 -19.933250 17.649488 -46.243550 
0.344991 0.130196 0.837306 113.071108 -6.044812 93.764895 17.874646 -6.530805 -20.671967 -18.117636 -15.686065 62.138604 -4.022933 -3.338252 -33.759242 0.000000 -0.000000 0.000000 -21.372113 -10.998386 -44.378329 -2.078077 -7.999880 62.170325 1.431699 2.183686 -24.632103 0.000000 -0.000000 0.000000 2.412277 0.067563 19.536205 2.920692 1.143068 -4.814781 0.648196 -0.486810 3.452078 -7.101867 -13.384375 18.157454 14.392251 -8.689178 -21.223398 -9.502384 -12.115247 -1.825541 -59.122381 -34.553980 26.067664 158.337218 -46.027291 -137.688537 24.143606 -19.181110 -44.319391 3.009296 17.152996 -6.360739 38.654555 37.176442 -2.318302 -147.427784 48.036816 -132.920218 -19.545698 17.752432 -45.802900 
0.343199 0.130478 0.833921 112.567135 -6.271117 93.959403 17.463264 -6.944685 -20.912451 -17.097326 -14.531129 62.570900 -3.827042 -3.051754 -34.914774 0.000000 -0.000000 0.000000 -21.031445 -10.541015 -45.689653 -2.982195 -7.131856 63.224613 1.707567 2.118096 -24.567887 0.000000 -0.000000 0.000000 2.723356 1.501628 19.737362 2.830598 3.254399 -4.709335 0.827628 0.506950 3.384237 -6.251017 -13.934061 16.676093 14.189492 -11.413495 -21.696183 -8.397909 -10.986160 -3.345301 -62.984860 -35.201104 29.512873 161.548104 -46.479218 -138.892880 22.322055 -21.179318 -42.251718 3.282799 17.517964 -5.901103 38.163182 38.536853 -2.420276 -145.903207 47.814318 -130.789335 -18.777461 18.480407 -45.062601 
0.340094 0.129450 0.833019 110.359015 -6.019501 94.900264 17.152214 -7.140134 -21.085690 -16.362224 -14.074056 62.960619 -3.829807 -2.205577 -35.431073 0.000000 -0.000000 0.000000 -20.450806 -9.607220 -47.793917 -2.783952 -7.036680 63.113970 1.705609 2.617772 -23.800041 0.000000 -0.000000 0.000000 2.325888 1.276146 19.941713 2.853648 3.326266 -4.377769 0.891621 0.869555 2.978793 -6.154651 -11.701232 15.433038 13.776409 -10.534901 -21.883128 -7.237439 -12.326359 -3.575583 -65.349322 -36.229781 31.248280 161.951726 -48.468425 -137.448241 21.799650 -20.978000 -39.416878 3.634382 19.755394 -5.276131 40.092710 40.790960 -0.652363 -145.216631 48.274950 -129.543597 -18.897223 18.252857 -45.038228 
0.336033 0.127468 0.834361 106.598428 -4.723527 96.246922 17.749371 -6.528233 -20.767493 -15.715273 -13.634877 62.832205 -4.131170 -0.916575 -35.655775 0.000000 -0.000000 0.000000 -19.254323 -8.282534 -50.071796 -1.396196 -8.077088 61.650819 1.436964 3.808190 -22.506694 0.000000 -0.000000 0.000000 1.492164 -0.191709 20.398190 3.240254 1.798771 -3.984304 1.067530 0.431461 2.491747 -6.187489 -7.186702 14.104013 13.379490 -7.325933 -21.810686 -5.804717 -16.228988 -2.929317 -65.697251 -38.754440 31.054835 158.672406 -51.443022 -133.715358 22.030134 -19.001930 -37.486123 3.997361 23.260915 -4.711102 42.794021 42.089416 1.473020 -146.467234 48.484782 -130.746301 -19.127020 17.698428 -46.077951 
0.331919 0.124294 0.837279 101.391278 -2.085441 97.742079 19.771714 -4.516363 -19.767002 -15.043202 -12.782199 62.125850 -4.732385 0.356745 -35.686081 0.000000 -0.000000 0.000000 -16.832818 -6.283009 -52.281758 0.887212 -9.690492 58.852608 1.048163 5.358114 -20.588438 0.000000 -0.000000 0.000000 0.120833 -2.199159 20.991782 4.193620 -0.469143 -3.470459 1.685151 -0.851273 2.076603 -5.855494 -0.464038 12.644175 12.693931 -3.130619 -21.676197 -4.195130 -21.217155 -2.481435 -62.531359 -43.045730 27.928001 149.865378 -55.305744 -125.992020 22.929046 -17.374171 -37.190517 4.294471 26.861731 -4.539504 45.266453 42.059859 3.252441 -148.442718 48.802987 -132.553511 -19.950643 17.169818 -47.631910 
0.327554 0.120641 0.840632 95.565376 1.302507 99.077711 22.446565 -1.862676 -18.367704 -14.733510 -12.132498 61.297702 -5.400518 1.856056 -35.254156 0.000000 -0.000000 0.000000 -13.593925 -3.437948 -54.070493 3.560783 -10.868679 54.931579 0.757778 6.352037 -18.045555 0.000000 -0.000000 0.000000 -1.789162 -4.403381 21.793100 5.282391 -3.202924 -3.192392 2.649942 -2.752635 1.917913 -5.418032 7.862288 11.743212 12.184455 1.777976 -21.837067 -2.637928 -27.015806 -2.621676 -51.448572 -47.357661 18.667333 128.900761 -60.774779 -106.769289 26.041392 -17.425322 -37.741414 4.365031 30.609573 -4.898176 46.838104 40.063833 4.196868 -150.514368 49.776024 -134.702211 -21.721683 16.602524 -49.532680 
0.323251 0.117564 0.844825 89.985818 4.504116 99.814497 24.488634 0.405954 -16.660238 -14.776936 -12.023670 60.791167 -5.792781 4.200497 -34.498799 0.000000 -0.000000 0.000000 -10.174987 0.308210 -55.066043 6.007752 -10.302788 50.797918 0.690327 5.828855 -15.608346 0.000000 -0.000000 0.000000 -4.109419 -6.400957 22.846400 6.219803 -6.117623 -3.411583 3.744150 -4.718483 2.285226 -5.876400 16.134433 11.456852 12.322186 6.744991 -22.616282 -0.659486 -33.402847 -3.377619 -32.757257 -48.329109 3.382996 83.078923 -60.732358 -62.286099 27.805388 -17.636960 -36.227428 4.622887 34.504617 -5.651393 46.731255 36.720743 3.708613 -153.314870 51.365174 -137.834490 -22.958910 16.373168 -51.038716 
